PathFileType	4	(X/Y/Z)	C:\Users\Basilio\Documents\Thesis Gigler\squatting_fais\c3dfiles\039\SLS_pre_front4\markers_experimental.trc
DataRate	CameraRate	NumFrames	NumMarkers	Units	OrigDataRate	OrigDataStartFrame	OrigNumFrames
200.000000	200.000000	4	63	mm	200.000000	499	1999
Frame#	Time	FHD			LBHD			RBHD			C7			T10			CLAV			LSHO			LUUPA			LMUPA			LDUPA			LLEP			LMEP			LRAD			LUL			LRFIN			RSHO			RUPA1			RMUPA			RDUPA			RLEP			RMEP			RRAD			RUL			RUFIN			LASI			RASI			USACR			LSACR			RSACR			LTHI1			LTHI2			LTHI3			LTHI4			LLFC			LMFC			LTIB1			LTIB2			LTIB3			LTIB4			LLMAL			LMMAL			LHEE			LMT1			LMT2			LMT5			RTHI			RTHI2			RTHI3			RTHI4			RLFC			RMFC			RTIB1			RTIB2			RTIB3			RTIB4			RLMAL			RMMAL			RHEE			RMT1			RMT2			RMT5			*61			*62			
		X1	Y1	Z1	X2	Y2	Z2	X3	Y3	Z3	X4	Y4	Z4	X5	Y5	Z5	X6	Y6	Z6	X7	Y7	Z7	X8	Y8	Z8	X9	Y9	Z9	X10	Y10	Z10	X11	Y11	Z11	X12	Y12	Z12	X13	Y13	Z13	X14	Y14	Z14	X15	Y15	Z15	X16	Y16	Z16	X17	Y17	Z17	X18	Y18	Z18	X19	Y19	Z19	X20	Y20	Z20	X21	Y21	Z21	X22	Y22	Z22	X23	Y23	Z23	X24	Y24	Z24	X25	Y25	Z25	X26	Y26	Z26	X27	Y27	Z27	X28	Y28	Z28	X29	Y29	Z29	X30	Y30	Z30	X31	Y31	Z31	X32	Y32	Z32	X33	Y33	Z33	X34	Y34	Z34	X35	Y35	Z35	X36	Y36	Z36	X37	Y37	Z37	X38	Y38	Z38	X39	Y39	Z39	X40	Y40	Z40	X41	Y41	Z41	X42	Y42	Z42	X43	Y43	Z43	X44	Y44	Z44	X45	Y45	Z45	X46	Y46	Z46	X47	Y47	Z47	X48	Y48	Z48	X49	Y49	Z49	X50	Y50	Z50	X51	Y51	Z51	X52	Y52	Z52	X53	Y53	Z53	X54	Y54	Z54	X55	Y55	Z55	X56	Y56	Z56	X57	Y57	Z57	X58	Y58	Z58	X59	Y59	Z59	X60	Y60	Z60	X61	Y61	Z61	X62	Y62	Z62	X63	Y63	Z63	

500	2.495	-285.8813171386719	1791.279663085938	-720.8789672851564	-444.2895507812501	1762.47900390625	-839.9093017578127	-416.7657775878907	1768.499267578125	-701.3923950195314	-481.0888671875001	1591.653076171875	-784.2852172851565	-472.8258056640626	1281.536254882813	-798.952087402344	nan	nan	nan	-405.1340637207032	1611.1884765625	-935.8636474609377	-230.4664611816407	1587.9560546875	-1038.307006835938	-211.8747100830079	1621.783325195313	-1006.210754394531	-162.1456604003907	1602.494995117188	-1034.978637695313	-97.28617858886722	1615.901977539063	-1027.497680664063	-88.0328826904297	1546.138427734375	-993.1011352539065	nan	nan	nan	176.7294616699219	1671.69970703125	-1020.671264648438	257.0203247070313	1710.163818359375	-941.6700439453127	-372.6500244140626	1612.816650390625	-630.2653198242189	-199.3503723144532	1570.629028320313	-539.2656860351564	-177.566650390625	1605.004150390625	-569.2327880859376	-131.6219940185547	1572.417846679688	-546.1553955078126	-71.28115081787111	1591.3076171875	-560.7078857421876	-61.99487686157228	1522.43359375	-598.0609130859376	208.378402709961	1657.05322265625	-653.4049682617189	211.2813262939454	1648.494262695313	-577.9228515625001	296.1708679199219	1692.870483398438	-646.6121215820314	-288.3285217285157	1110.125610351563	-916.579528808594	-289.2998352050782	1091.0263671875	-691.8817749023439	-474.5401306152345	1151.2333984375	-801.4312744140627	-476.0971069335939	1120.155151367188	-830.6492919921877	-477.2656555175782	1117.452758789063	-771.813903808594	-329.4095153808594	828.840759277344	-1003.385986328125	-291.9299926757813	753.1771850585939	-1005.271850585938	-245.4031829833985	758.8565673828126	-993.0177001953127	-316.2619934082032	698.1766357421876	-999.8997192382815	-313.8995666503907	577.8652343750001	-1002.778076171875	-291.3545837402344	544.7514038085939	-889.8919067382815	-269.6619567871094	424.7695312500001	-988.4941406250002	-335.5940551757813	394.8527221679689	-1036.857299804688	-297.0672607421876	382.8157653808594	-1017.981872558594	-308.0644531250001	301.8200073242188	-984.8926391601565	-386.2654724121095	145.0308685302735	-1028.629638671875	-371.5915832519532	137.4385375976563	-943.7683715820315	-460.0164794921876	109.8794708251953	-995.4990844726565	-233.3971862792969	57.83266448974611	-972.4377441406252	-240.4169158935547	57.76466369628908	-1014.886657714844	-287.9918518066407	43.67864990234376	-1065.460815429688	-316.3919982910157	814.923767089844	-638.5913696289064	-270.6049804687501	766.0953979492189	-637.8230590820314	-239.6137695312501	773.2495727539065	-644.4605712890626	-288.5061645507813	683.0352783203126	-653.3881225585939	-309.5053405761719	544.5578002929689	-683.0154418945314	-273.7330932617188	541.4501953125001	-797.1486816406252	-282.3337402343751	333.2735900878907	-708.2239379882814	-371.9783020019532	273.8570251464844	-703.2644042968751	-326.9341430664063	261.1594543457032	-703.1546630859376	-312.5199279785157	214.1924743652344	-738.3509521484376	-386.409149169922	125.2209854125977	-719.8581542968751	-353.7518310546876	141.5707397460938	-803.4628906250002	-453.7265625000001	104.2319946289063	-773.6434326171877	-230.0464172363282	55.00079727172853	-780.230163574219	-234.5647277832032	58.10129547119142	-734.1330566406251	-290.7457275390626	42.15424346923829	-682.5654907226564	nan	nan	nan	nan	nan	nan	
501	2.5	-285.8112487792969	1791.189331054688	-720.4656372070314	-444.9505920410157	1762.493408203125	-839.853454589844	-416.6842651367189	1768.418090820313	-700.9771728515626	-481.0592346191407	1591.560791015625	-783.8926391601565	-473.0338745117189	1281.509155273438	-798.4951782226565	nan	nan	nan	-405.3111267089845	1611.119873046875	-935.294128417969	-230.5412902832032	1587.933837890625	-1037.821044921875	-212.0194702148438	1621.694213867188	-1005.75927734375	-162.1885681152344	1602.541259765625	-1034.57373046875	-97.43414306640628	1615.7861328125	-1027.050415039063	-88.11588287353517	1546.088623046875	-992.6443481445315	nan	nan	nan	176.7042694091797	1671.652709960938	-1020.348571777344	256.9223632812501	1709.773315429688	-941.0286865234377	-372.8201293945313	1612.80224609375	-629.7827148437501	-199.4070434570313	1570.322021484375	-538.7212524414064	-177.6684875488282	1604.829711914063	-568.8742675781251	-131.6980438232422	1572.204956054688	-545.6367187500001	-71.37508392333986	1591.073486328125	-560.3471679687501	-62.05886840820314	1522.244140625	-597.6877441406251	208.2982177734376	1656.754760742188	-653.0703735351564	211.1029663085938	1648.181518554688	-577.4205932617189	296.1080932617188	1692.5166015625	-646.2660522460939	-288.6628417968751	1110.103881835938	-916.0334472656252	-289.7988281250001	1090.931762695313	-691.2864990234376	-474.7957763671876	1151.14892578125	-801.0200195312502	-476.2934570312501	1120.08349609375	-830.1209716796877	-477.7324218750001	1117.383178710938	-771.3599853515627	-329.4011840820313	829.0272216796877	-1002.919738769531	-291.9299621582032	753.2872314453126	-1005.144897460938	-245.343734741211	758.8457031250001	-992.7264404296877	-316.2461547851563	698.1296386718751	-999.5879516601565	-313.7349548339844	577.9135742187501	-1002.495544433594	-291.3333740234376	544.6282958984376	-889.5881958007815	-269.4780273437501	424.7447509765626	-988.3538818359377	-335.5176696777344	394.3716430664064	-1036.740234375	-296.8599853515626	382.8728942871094	-1017.881042480469	-307.9550476074219	301.8240356445313	-984.7258911132815	-386.2373352050782	145.0822143554688	-1028.652587890625	-371.4784545898438	137.7078399658203	-943.9050292968752	-460.0187377929689	109.8729705810547	-995.559997558594	-233.7624053955079	57.35140228271486	-971.745300292969	-240.418685913086	57.73376846313478	-1014.91552734375	-288.0098571777344	43.68828201293946	-1065.53271484375	-316.6780090332032	814.8892211914065	-638.0016479492189	-270.7559814453126	766.1484985351564	-637.3947143554689	-239.7316894531251	773.189147949219	-643.9470214843751	-288.7328186035157	683.0195312500001	-652.9722290039064	-309.5876159667969	544.5239257812501	-682.6717529296876	-273.8645629882813	541.5057373046876	-796.7766723632815	-282.3849182128907	333.2279663085938	-708.0572509765626	-371.9357299804688	273.7261657714844	-702.9708862304689	-327.0132751464844	261.1257934570313	-702.9397583007814	-312.5851135253907	213.9804687500001	-738.2653808593751	-386.4456787109376	125.2094345092774	-719.7479248046876	-353.7865905761719	141.58154296875	-803.3515625000002	-453.7415771484376	104.2274703979492	-773.5589599609377	-230.0121765136719	55.00268936157228	-780.2561645507815	-234.6034088134766	58.07891082763673	-734.1605224609376	-290.8074340820313	42.11005020141602	-682.5745239257814	nan	nan	nan	nan	nan	nan	
502	2.505	-285.6782836914063	1791.195556640625	-719.9993896484376	-445.0588989257814	1762.4921875	-839.2793579101565	-416.5136718750001	1768.141235351563	-700.3453979492189	-481.0809020996095	1591.540405273438	-783.5761718750002	-473.4384155273439	1281.553100585938	-797.9755859375002	nan	nan	nan	-405.3118286132814	1611.077270507813	-934.8356933593752	-230.7382202148438	1587.792724609375	-1037.316040039063	-211.9881591796876	1621.693725585938	-1005.438598632813	-162.3343048095703	1602.463134765625	-1034.102905273438	-97.59241485595706	1615.710693359375	-1026.603637695313	-88.14690399169923	1546.080078125	-992.3033447265627	nan	nan	nan	176.4866180419922	1671.57177734375	-1019.982360839844	256.8879699707032	1710.12060546875	-940.813903808594	-372.8734130859376	1612.68896484375	-629.3823852539064	-199.5019531250001	1570.205200195313	-538.2457885742189	-177.727035522461	1604.630493164063	-568.4540405273439	-131.7642669677735	1572.081787109375	-545.1631469726564	-71.53934478759767	1590.8671875	-559.8831787109376	-62.18745040893556	1521.977661132813	-597.2846069335939	208.2452239990235	1656.384887695313	-652.7675170898439	211.1810150146485	1648.01904296875	-576.8583374023439	296.0045471191407	1692.182006835938	-646.0430297851564	-289.0648498535157	1110.020874023438	-915.3159790039065	-290.2938842773438	1090.84228515625	-690.5595703125001	-475.2826232910157	1151.24951171875	-800.4847412109377	-476.6534118652345	1120.02734375	-829.7305908203127	-478.3913574218751	1117.418212890625	-770.9134521484377	-329.4375305175782	828.990661621094	-1002.541076660156	-291.8531188964844	753.2565307617189	-1004.788452148438	-245.2944793701172	758.9324340820314	-992.3638916015627	-316.1778869628907	698.0964355468751	-999.2181396484377	-313.4894714355469	577.9002075195314	-1002.239807128906	-291.2695617675782	544.6069335937501	-889.2801513671877	-269.3537902832032	424.719451904297	-988.1833496093752	-335.3803100585938	394.3391723632814	-1036.640869140625	-296.8305053710938	383.0961914062501	-1017.716369628906	-307.8335876464844	301.8862304687501	-984.637390136719	-386.236297607422	145.1296844482422	-1028.650756835938	-371.5914611816407	137.4721984863282	-943.7520141601565	-460.0274658203126	109.9260025024414	-995.5999755859377	-233.5440673828126	58.15257644653322	-972.3332519531252	-240.4498748779297	57.74659729003908	-1014.877380371094	-287.9380187988282	43.65196990966798	-1065.521362304688	-316.9354553222657	814.831970214844	-637.4602050781251	-271.3558044433594	765.4260253906251	-637.6128540039064	-239.9703979492188	773.0537719726565	-643.3485107421876	-288.6809387207032	683.1718750000001	-652.4582519531251	-309.6213684082032	544.4104614257814	-682.3319702148439	-273.9663696289063	541.5292968750001	-796.384460449219	-282.4124145507813	333.2077331542969	-707.9022216796876	-372.0438537597657	273.7490539550782	-702.6862182617189	-327.0426025390626	261.0794067382813	-702.7047119140626	-312.5727844238282	213.9881439208985	-738.1514892578126	-386.4689941406251	125.1899642944336	-719.6489257812501	-353.8924865722657	141.3438262939453	-803.3315429687502	-453.7857055664064	104.2083587646485	-773.5524902343752	-229.9900817871094	55.01623153686525	-780.153747558594	-234.6231842041016	57.96266555786134	-734.2276000976564	-290.8199157714844	42.13113021850587	-682.5773315429689	nan	nan	nan	nan	nan	nan	
503	2.51	-285.6379089355469	1791.057861328125	-719.5411376953126	-444.8397827148439	1762.440063476563	-838.7610473632815	-416.5982666015626	1768.304077148438	-700.0059204101564	-481.1764526367189	1591.48291015625	-783.065612792969	-473.6920166015626	1281.5546875	-797.583679199219	nan	nan	nan	-405.8263549804689	1611.186767578125	-934.6243896484377	-230.7516021728516	1587.821166992188	-1036.80810546875	-211.9371337890626	1621.641723632813	-1005.033569335938	-162.4167785644532	1602.33935546875	-1033.642333984375	-97.624382019043	1615.666259765625	-1026.134643554688	-88.17806243896486	1546.039916992188	-991.9062500000002	nan	nan	nan	176.4216918945313	1671.549926757813	-1019.564208984375	256.7819213867188	1710.114013671875	-940.4006347656252	-372.9734191894532	1612.6318359375	-628.9460449218751	-199.5699615478516	1570.007568359375	-537.7445678710939	-177.8071899414063	1604.478515625	-568.0594482421876	-131.878173828125	1572.031616210938	-544.8368530273439	-71.63681793212892	1590.61328125	-559.4165039062501	-62.36201858520509	1521.799560546875	-596.8291015625001	208.0244750976563	1655.948974609375	-652.4020385742189	211.1470794677735	1647.731323242188	-576.5574340820314	295.9275512695313	1691.862426757813	-645.7416381835939	-289.2779846191407	1109.96044921875	-914.6984863281252	-290.6748046875001	1090.676147460938	-690.1344604492189	-475.537567138672	1151.194213867188	-800.069274902344	-476.9416809082032	1120.069580078125	-829.2313232421877	-478.6648559570314	1117.48046875	-770.4068603515627	-329.3356628417969	828.9009399414065	-1002.141479492188	-291.7938842773438	753.2244873046876	-1004.446899414063	-245.2045288085938	758.9052124023439	-992.058044433594	-316.0176696777344	698.0421142578126	-998.7478027343752	-313.2716674804688	577.9089355468751	-1001.936157226563	-291.1117248535157	544.5824584960939	-888.872497558594	-269.1894226074219	424.7091674804689	-987.935241699219	-335.2327270507813	394.4095153808595	-1036.447509765625	-296.8081359863282	383.2344360351563	-1017.491027832031	-307.7376708984376	301.9225769042969	-984.580505371094	-386.195281982422	144.6063537597657	-1028.787109375	-371.5244445800782	137.4801788330078	-943.801940917969	-460.0408020019532	109.9693984985352	-995.5949707031252	-233.3812103271485	57.8056106567383	-972.4613037109377	-240.3903350830079	57.74502563476564	-1014.942565917969	-287.9544982910157	43.67110824584962	-1065.530151367188	-317.2541198730469	814.6480712890627	-636.9608154296876	-271.0609436035157	765.9144287109376	-636.5764770507814	-240.0940704345704	773.056823730469	-642.9548339843751	-288.7654113769532	683.1508178710939	-651.9866943359376	-309.6918640136719	544.3831787109376	-681.9375000000001	-274.1850280761719	541.6039428710939	-795.9863891601565	-282.4056701660157	333.1717224121094	-707.7096557617189	-372.0549926757813	273.6756286621094	-702.3886108398439	-327.0592346191407	261.0026855468751	-702.5993041992189	-312.6087951660157	214.0121154785157	-738.0000610351564	-386.4790039062501	125.1667175292969	-719.5308227539064	-353.9039001464844	141.3657836914063	-803.1624145507815	-453.7811279296876	104.2083587646485	-773.5222167968752	-229.9588012695313	54.99978256225587	-780.1896972656252	-234.621078491211	57.97818756103517	-734.2153320312501	-290.7966308593751	42.00088500976563	-682.5407104492189	nan	nan	nan	nan	nan	nan	
